<svg width="86" height="86" viewBox="0 0 86 86" fill="none" xmlns="http://www.w3.org/2000/svg">
<path d="M0 32C0 20.799 0 15.1984 2.17987 10.9202C4.09734 7.15695 7.15695 4.09734 10.9202 2.17987C15.1984 0 20.799 0 32 0H54C65.201 0 70.8016 0 75.0798 2.17987C78.843 4.09734 81.9027 7.15695 83.8201 10.9202C86 15.1984 86 20.799 86 32V54C86 65.201 86 70.8016 83.8201 75.0798C81.9027 78.843 78.843 81.9027 75.0798 83.8201C70.8016 86 65.201 86 54 86H32C20.799 86 15.1984 86 10.9202 83.8201C7.15695 81.9027 4.09734 78.843 2.17987 75.0798C0 70.8016 0 65.201 0 54V32Z" fill="url(#paint0_linear_429_711)"/>
<g filter="url(#filter0_iiii_429_711)">
<path d="M35.7528 52.9895C35.9542 58.1249 36.5987 67.6103 37.5654 70.5103C38.418 73.0681 39 74.7394 42.6832 74.7394C42.6832 74.747 42.6832 74.7318 42.6832 74.7394C46 74.7394 47.356 73.7549 48.4376 70.5103C49.4042 67.6103 50.0487 58.1249 50.2501 52.9895C50.3372 50.7699 47.9325 47.9686 43.0029 47.8575L43.0029 47.8541C42.9509 47.8541 42.8992 47.8543 42.8478 47.8549C42.7981 47.8543 42.7481 47.8541 42.6979 47.8541C42.6951 47.8552 42.6923 47.8563 42.6894 47.8574C37.6066 47.968 35.6657 50.7696 35.7528 52.9895Z" fill="white"/>
<circle cx="43" cy="38.1874" r="6.64582" fill="white"/>
<path fill-rule="evenodd" clip-rule="evenodd" d="M32.801 51.2729C31.1406 49.7706 29.8223 47.9107 28.9552 45.8174C27.6746 42.7257 27.4499 39.2978 28.3161 36.0654C29.1822 32.8329 31.0907 29.9766 33.7456 27.9394C36.4006 25.9022 39.6535 24.798 43 24.798C46.3465 24.798 49.5994 25.9022 52.2544 27.9394C54.9093 29.9766 56.8178 32.8329 57.684 36.0654C58.5501 39.2978 58.3254 42.7257 57.0448 45.8174C56.1779 47.9104 54.8599 49.77 53.1997 51.2722C53.1253 52.8862 53.0261 54.7052 52.9035 56.604C56.4758 54.4734 59.268 51.2458 60.8616 47.3984C62.4903 43.4665 62.776 39.107 61.6745 34.9961C60.573 30.8852 58.1458 27.2526 54.7694 24.6618C51.3929 22.0709 47.2559 20.6666 43 20.6666C38.7441 20.6666 34.6071 22.0709 31.2307 24.6618C27.8542 27.2526 25.427 30.8852 24.3255 34.9961C23.224 39.107 23.5097 43.4665 25.1384 47.3984C26.7321 51.246 29.5246 54.4738 33.0972 56.6045C32.9746 54.7057 32.8754 52.8869 32.801 51.2729Z" fill="white"/>
<path fill-rule="evenodd" clip-rule="evenodd" d="M33.5711 62.8399C29.0667 60.9804 25.1885 57.8193 22.4547 53.7278C19.1242 48.7434 17.7193 42.7181 18.5018 36.7747C19.2842 30.8312 22.2007 25.3749 26.7078 21.4222C31.2149 17.4696 37.0052 15.2903 43 15.2903C48.9948 15.2903 54.7851 17.4696 59.2922 21.4223C63.7993 25.3749 66.7157 30.8312 67.4982 36.7747C68.2807 42.7181 66.8758 48.7434 63.5453 53.7279C60.8116 57.8191 56.9337 60.9801 52.4296 62.8396C52.2831 64.4877 52.1206 66.0961 51.9429 67.5866C58.1317 65.5805 63.482 61.545 67.1126 56.1114C71.0213 50.2615 72.6702 43.1901 71.7518 36.2147C70.8335 29.2392 67.4106 22.8355 62.121 18.1966C56.8313 13.5577 50.0356 11 43 11C35.9644 11 29.1687 13.5577 23.879 18.1966C18.5894 22.8355 15.1665 29.2392 14.2482 36.2147C13.3298 43.1901 14.9787 50.2615 18.8874 56.1114C22.5181 61.5451 27.8687 65.5808 34.0578 67.5868C33.8801 66.0963 33.7176 64.488 33.5711 62.8399Z" fill="white"/>
</g>
<defs>
<filter id="filter0_iiii_429_711" x="14" y="11" width="58" height="65.7416" filterUnits="userSpaceOnUse" color-interpolation-filters="sRGB">
<feFlood flood-opacity="0" result="BackgroundImageFix"/>
<feBlend mode="normal" in="SourceGraphic" in2="BackgroundImageFix" result="shape"/>
<feColorMatrix in="SourceAlpha" type="matrix" values="0 0 0 0 0 0 0 0 0 0 0 0 0 0 0 0 0 0 127 0" result="hardAlpha"/>
<feOffset dy="2"/>
<feGaussianBlur stdDeviation="1"/>
<feComposite in2="hardAlpha" operator="arithmetic" k2="-1" k3="1"/>
<feColorMatrix type="matrix" values="0 0 0 0 0.59516 0 0 0 0 0.198958 0 0 0 0 0.795833 0 0 0 0.33 0"/>
<feBlend mode="normal" in2="shape" result="effect1_innerShadow_429_711"/>
<feColorMatrix in="SourceAlpha" type="matrix" values="0 0 0 0 0 0 0 0 0 0 0 0 0 0 0 0 0 0 127 0" result="hardAlpha"/>
<feOffset dx="1"/>
<feComposite in2="hardAlpha" operator="arithmetic" k2="-1" k3="1"/>
<feColorMatrix type="matrix" values="0 0 0 0 0.469499 0 0 0 0 0.141406 0 0 0 0 0.754167 0 0 0 0.3 0"/>
<feBlend mode="normal" in2="effect1_innerShadow_429_711" result="effect2_innerShadow_429_711"/>
<feColorMatrix in="SourceAlpha" type="matrix" values="0 0 0 0 0 0 0 0 0 0 0 0 0 0 0 0 0 0 127 0" result="hardAlpha"/>
<feOffset dy="1"/>
<feComposite in2="hardAlpha" operator="arithmetic" k2="-1" k3="1"/>
<feColorMatrix type="matrix" values="0 0 0 0 0.469499 0 0 0 0 0.141406 0 0 0 0 0.754167 0 0 0 0.8 0"/>
<feBlend mode="normal" in2="effect2_innerShadow_429_711" result="effect3_innerShadow_429_711"/>
<feColorMatrix in="SourceAlpha" type="matrix" values="0 0 0 0 0 0 0 0 0 0 0 0 0 0 0 0 0 0 127 0" result="hardAlpha"/>
<feOffset dx="-1"/>
<feComposite in2="hardAlpha" operator="arithmetic" k2="-1" k3="1"/>
<feColorMatrix type="matrix" values="0 0 0 0 0.469499 0 0 0 0 0.141406 0 0 0 0 0.754167 0 0 0 0.3 0"/>
<feBlend mode="normal" in2="effect3_innerShadow_429_711" result="effect4_innerShadow_429_711"/>
</filter>
<linearGradient id="paint0_linear_429_711" x1="43" y1="0" x2="43" y2="86" gradientUnits="userSpaceOnUse">
<stop stop-color="#B872E7"/>
<stop offset="0.0001" stop-color="#BE71E5"/>
<stop offset="1" stop-color="#7736B8"/>
</linearGradient>
</defs>
</svg>
